# xmcd CD database file
#
# Track frame offsets:
#	150
#	30805
#	55986
#	127249
#	171252
#	188783
#	224015
#	244057
#
# Disc length: 3731 seconds
#
# Revision: 0
# Processed by: cddbd v1.5.1PL0 Copyright (c) Steve Scherf et al.
# Submitted via: CDex 1.51
#
DISCID=730e9108
DTITLE=St. Germaine - Boulevard
DYEAR=1900
DGENRE=Jazz
TTITLE0=Deep in It
TTITLE1=Street Scene (4 Schazz)
TTITLE2=Sentimental Mood
TTITLE3=What's New?
TTITLE4=Dub Experience II
TTITLE5=Forget It
TTITLE6=Soul Salsa Soul
TTITLE7=Alabama Blues
EXTD=
EXTT0=
EXTT1=
EXTT2=
EXTT3=
EXTT4=
EXTT5=
EXTT6=
EXTT7=
PLAYORDER=
